<svg width="87" height="28" viewBox="0 0 87 28" fill="none" xmlns="http://www.w3.org/2000/svg">
<g clip-path="url(#clip0_115_66)">
<path d="M57.4561 13.9983C57.4561 21.7305 51.1867 27.9967 43.4578 27.9967C35.7289 27.9967 29.4595 21.7305 29.4595 13.9983C29.4595 6.26611 35.7256 0 43.4545 0C51.1833 0 57.4528 6.26611 57.4528 13.9983M43.4545 5.39916C38.7047 5.39916 34.8553 9.24854 34.8553 13.9983C34.8553 18.7481 38.7047 22.5975 43.4545 22.5975C48.2042 22.5975 52.0536 18.7481 52.0536 13.9983C52.0536 9.24854 48.2042 5.39916 43.4545 5.39916Z" fill="white"/>
<path d="M73.3892 0.103767C80.7499 0.103767 86.1625 5.70042 86.1625 12.8167V24.8603C86.1625 26.4402 84.8838 27.7188 83.3039 27.7188C81.724 27.7188 80.4453 26.4402 80.4453 24.8603V12.1473C80.4453 8.31464 77.4026 5.33557 73.3892 5.33557C69.3758 5.33557 66.3934 8.31464 66.3934 12.1473V24.8603C66.3934 26.4402 65.1148 27.7188 63.5348 27.7188C61.9549 27.7188 60.6763 26.4402 60.6763 24.8603V12.8167C60.6763 5.70042 66.0286 0.103767 73.3892 0.103767Z" fill="white"/>
<path d="M47.3808 16.0234L41.3457 10.0854C41.2017 9.94477 41.3022 9.70042 41.503 9.70042H47.5381C47.662 9.70042 47.7624 9.80083 47.7624 9.92468V15.8628C47.7624 16.0636 47.5214 16.164 47.3808 16.0234Z" fill="white"/>
<path d="M39.5315 11.9732L45.6235 17.9648C45.7474 18.0854 45.6604 18.2962 45.4863 18.2962H39.3742C39.2503 18.2962 39.1499 18.1958 39.1499 18.072V12.1339C39.1499 11.9331 39.3909 11.8326 39.5315 11.9732Z" fill="white"/>
<path d="M19.6787 24.0536C19.1565 23.1197 18.0552 22.6979 17.031 23.0059C16.1741 23.2636 15.2201 23.4008 14.1121 23.4008C9.06443 23.4008 6.20586 20.2377 5.90125 16.0402H24.087C25.7305 16.0402 26.2761 15.0661 26.2761 14.0954C26.2761 6.30628 21.2887 0.103767 13.6234 0.103767C5.95816 0.103767 0 6.06527 0 14.0318C0 21.9983 4.80335 27.9598 13.8678 27.9598C15.4109 27.9598 16.9205 27.7389 18.3331 27.3372C19.7356 26.9389 20.3916 25.3255 19.6753 24.0536H19.6787ZM13.6234 4.66611C17.7607 4.66611 20.4954 7.76904 20.9841 11.4176H6.02176C6.57071 7.64519 9.42929 4.66611 13.6234 4.66611Z" fill="white"/>
</g>
<defs>
<clipPath id="clip0_115_66">
<rect width="86.159" height="28" fill="white"/>
</clipPath>
</defs>
</svg>
